<?xml version="1.0" encoding="UTF-8"?>
<svg width="561px" height="66px" viewBox="0 0 561 66" version="1.1" xmlns="http://www.w3.org/2000/svg" xmlns:xlink="http://www.w3.org/1999/xlink">
    <!-- Generator: Sketch 55.2 (78181) - https://sketchapp.com -->
    <title>CoveyHomes_PrimaryLogo_RGB_W</title>
    <desc>Created with Sketch.</desc>
    <g id="Page-1" stroke="none" stroke-width="1" fill="none" fill-rule="evenodd">
        <g id="CoveyHomes_PrimaryLogo_RGB_W" fill="#FFFFFF" fill-rule="nonzero">
            <g id="type" transform="translate(73.000000, 5.000000)">
                <path d="M0.7156,27.8703 C0.7156,10.7388 11.4225,0.9925 25.1571,0.9925 C36.9718,0.9925 46.3496,7.4904 46.6454,19.01 L35.8646,19.01 C35.6428,11.1824 32.2459,5.0535 23.7541,5.0535 C14.8193,5.0535 9.7983,12.9544 9.7983,23.588 C9.7983,38.4305 18.9543,47.7344 29.883,47.7344 C35.6428,47.7344 40.3687,45.1496 43.6916,41.8267 L46.3497,44.0424 C42.4365,49.7276 35.0519,54.4535 25.6002,54.4535 C12.2352,54.4535 0.7156,44.189 0.7156,27.8702 L0.7156,27.8703 Z" id="type_CompoundPathItem_"></path>
                <path d="M50.1847,27.7224 C50.1847,11.3303 61.5564,0.9925 76.4722,0.9925 C91.388,0.9925 102.7603,11.3303 102.7603,27.7224 C102.7603,44.1145 91.3886,54.4535 76.4722,54.4535 C61.5558,54.4535 50.1847,44.1157 50.1847,27.7224 Z M92.4959,27.7224 C92.4959,12.8811 86.9579,5.0535 76.4723,5.0535 C65.9867,5.0535 60.4487,12.8811 60.4487,27.7224 C60.4487,42.5637 65.9873,50.3925 76.4723,50.3925 C86.9573,50.3925 92.4959,42.5649 92.4959,27.7224 L92.4959,27.7224 Z" id="type_CompoundPathItem_-2"></path>
                <path d="M190.4727,35.7712 C188.2576,43.5988 183.0887,49.7277 172.5291,49.7277 L164.2585,49.7277 L164.2585,29.0521 L170.0922,29.0521 C174.3011,29.0521 176.8859,30.3072 178.0671,35.8458 L181.0209,35.8458 L181.0209,17.8283 L178.0671,17.8283 C176.8859,23.736 174.3751,25.2123 170.0922,25.2123 L164.2585,25.2123 L164.2585,5.7185 L172.603,5.7185 C181.3899,5.7185 185.1559,8.8935 188.9957,16.1296 L192.0235,15.4648 L189.5127,1.8785 L133.9154,1.8785 L133.9154,5.127 C137.0904,5.3494 138.4934,6.3088 138.4934,8.2287 C138.4934,8.9669 138.3455,9.8529 137.9025,10.9613 L127.3435,39.9802 L115.4548,10.8134 C114.9378,9.6316 114.6427,8.671 114.6427,7.785 C114.6427,6.1608 115.7499,5.2748 118.4086,5.1269 L118.4086,1.8785 L98.8402,1.8785 L98.8402,5.1269 C101.2771,5.4226 103.714,6.6044 105.4121,10.8134 L123.2817,53.9367 L126.1616,53.9367 L142.7022,10.9613 C144.2407,6.9051 146.7697,5.1948 149.5293,5.1948 C152.2889,5.1948 154.8804,7.1819 154.8804,11.5516 L154.8804,43.8946 C154.8804,48.5459 153.1823,50.0235 148.7515,50.318 L148.7515,53.5676 L191.3584,53.5676 L193.6474,36.067 L190.4724,35.7713 L190.4727,35.7712 Z" id="type_PathItem_"></path>
                <path d="M226.872,1.8784 L242.8956,1.8784 L242.8956,5.127 C240.8278,5.4961 237.9479,6.8991 235.9546,10.5177 L223.9181,32.6708 L223.9181,43.8946 C223.9181,48.5459 225.5429,50.0235 230.1948,50.318 L230.1948,53.5676 L207.7465,53.5676 L207.7465,50.318 C212.6942,50.0235 214.4663,48.5459 214.4663,43.8946 L214.4663,32.6708 L200.5844,10.2219 C198.5905,6.899 196.7445,5.496 194.8985,5.1269 L194.8985,1.8784 L215.3523,1.8784 L215.3523,5.1269 C212.3991,5.4226 211.2912,6.8256 211.2912,8.4498 C211.2912,9.4104 211.5863,10.5176 212.2512,11.6248 L222.146,27.7224 L229.7518,13.2502 C230.7857,11.3303 231.3027,9.7794 231.3027,8.5976 C231.3027,6.6043 229.8258,5.4226 226.872,5.1268 L226.872,1.8784 L226.872,1.8784 Z" id="type_CompoundPathItem_-3"></path>
                <path d="M296.8059,3.7965 C291.5631,4.0177 290.677,5.3474 290.677,9.7029 L290.677,45.7379 C290.677,50.0947 291.563,51.4244 296.8059,51.6456 L296.8059,53.5655 L280.7083,53.5655 L280.7083,51.6456 C285.9511,51.4244 286.8372,50.0947 286.8372,45.7379 L286.8372,28.3119 L257.3007,28.3119 L257.3007,45.7379 C257.3007,50.0947 258.1867,51.4244 263.4296,51.6456 L263.4296,53.5655 L247.332,53.5655 L247.332,51.6456 C252.5748,51.4244 253.4609,50.0947 253.4609,45.7379 L253.4609,9.7029 C253.4609,5.3473 252.5749,4.0177 247.332,3.7965 L247.332,1.8766 L263.4296,1.8766 L263.4296,3.7965 C258.1868,4.0177 257.3007,5.3474 257.3007,9.7029 L257.3007,25.6538 L286.8372,25.6538 L286.8372,9.7029 C286.8372,5.3473 285.9512,4.0177 280.7083,3.7965 L280.7083,1.8766 L296.8059,1.8766 L296.8059,3.7965 Z" id="type_CompoundPathItem_-4"></path>
                <path d="M297.2605,27.7204 C297.2605,12.0664 307.2292,0.9905 321.6287,0.9905 C336.0282,0.9905 345.9963,12.0665 345.9963,27.7204 C345.9963,43.3743 336.0276,54.4515 321.6287,54.4515 C307.2298,54.4515 297.2605,43.3755 297.2605,27.7204 L297.2605,27.7204 Z M341.5661,27.7204 C341.5661,12.8046 333.8864,3.6486 321.6287,3.6486 C309.371,3.6486 301.6913,12.8046 301.6913,27.7204 C301.6913,42.6362 309.371,51.7935 321.6287,51.7935 C333.8864,51.7935 341.5661,42.6375 341.5661,27.7204 Z" id="type_CompoundPathItem_-5"></path>
                <path d="M450.4534,40.8642 C448.4595,48.027 445.5796,50.9075 438.269,50.9075 L422.0981,50.9075 L422.0981,28.0162 L433.691,28.0162 C437.6048,28.0162 438.786,29.3459 439.3029,34.7353 L441.2228,34.7353 L441.2228,18.7123 L439.3029,18.7123 C438.7859,23.7339 437.6787,25.3581 433.691,25.3581 L422.0981,25.3581 L422.0981,4.5346 L437.0139,4.5346 C444.6936,4.5346 446.7608,6.4545 448.3856,12.5834 L450.4534,12.2143 L448.3117,1.8765 L412.1294,1.8765 L412.1294,3.7964 C417.3722,4.0176 418.2583,5.3473 418.2583,9.7028 L418.2583,45.7378 C418.2583,49.9388 416.8393,51.6143 412.663,51.6143 C408.4867,51.6143 407.0819,50.1527 406.2291,45.9602 L396.9246,1.5073 L395.4477,1.5073 L378.3908,46.7717 L361.4066,1.5073 L359.9303,1.5073 L350.1828,45.8857 C349.2228,50.2425 348.3368,51.4243 343.6849,51.6455 L343.6849,53.5656 L358.6746,53.5656 L358.6746,51.6455 C354.4657,51.4976 353.0627,50.6861 353.0627,48.3959 C353.0627,47.7323 353.1366,46.9196 353.3578,46.0336 L360.8163,10.2198 L377.0612,53.5656 L378.6121,53.5656 L395.0788,9.9253 L402.5367,46.0337 C402.7585,47.0676 402.9064,47.9536 402.9064,48.6185 C402.9064,50.833 401.5767,51.4978 397.2945,51.6457 L397.2945,53.5656 L450.084,53.5656 L452.5209,41.2345 L450.4537,40.8642 L450.4534,40.8642 Z" id="type_PathItem_-2"></path>
                <path d="M456.7992,50.6862 L456.2083,41.3811 L458.2755,41.3811 C460.0482,48.6917 465.0692,51.7934 471.1981,51.7934 C477.4748,51.7934 483.6776,47.8802 483.6776,40.3472 C483.6776,34.145 480.3547,31.5603 474.1519,29.3458 L469.869,27.7949 C461.5984,24.7665 457.1683,21.1491 457.1683,14.2821 C457.1683,6.3066 463.2972,0.9905 472.3799,0.9905 C477.253,0.9905 481.905,2.3935 485.5976,4.3867 L486.1879,12.8046 L484.1207,12.8046 C483.308,7.1194 478.73,3.6486 471.863,3.6486 C466.3244,3.6486 460.7125,6.6024 460.7125,13.1737 C460.7125,19.745 465.5123,22.3309 471.1982,24.3975 L475.4811,25.9484 C481.6839,28.1641 487.6649,31.1912 487.6649,39.3146 C487.6649,47.5846 481.0191,54.4516 470.4601,54.4516 C466.3245,54.4516 461.0083,53.1219 456.7994,50.6863 L456.7992,50.6862 Z" id="type_CompoundPathItem_-6"></path>
            </g>
            <g id="logoMark">
                <path d="M13.2948,22.5566 C11.3234,22.5566 9.4324,23.3368 8.0361,24.7263 L-1.42108547e-14,32.7231 L8.0361,40.7201 C9.4324,42.1095 11.3234,42.8897 13.2948,42.8897 L22.5563,42.8897 L22.5563,22.5563 C22.5563,22.5563 13.2948,22.5563 13.2948,22.5563 L13.2948,22.5566 Z M12.2003,35.9608 C10.4093,35.9608 8.9573,34.5112 8.9573,32.7232 C8.9573,30.9352 10.4092,29.4856 12.2003,29.4856 C13.9914,29.4856 15.4428,30.9352 15.4428,32.7232 C15.4428,34.5112 13.9913,35.9608 12.2003,35.9608 Z" id="logoMark_CompoundPathItem_"></path>
                <path d="M52.1513,42.8895 C54.1227,42.8895 56.0137,42.1093 57.41,40.7198 L65.4461,32.723 L57.41,24.726 C56.0137,23.3366 54.1227,22.5564 52.1513,22.5564 L42.8898,22.5564 L42.8898,42.8898 C42.8898,42.8898 52.1513,42.8898 52.1513,42.8898 L52.1513,42.8895 Z M53.2458,29.4853 C55.0368,29.4853 56.4888,30.9349 56.4888,32.7229 C56.4888,34.5109 55.0369,35.9605 53.2458,35.9605 C51.4547,35.9605 50.0033,34.5109 50.0033,32.7229 C50.0033,30.9349 51.4548,29.4853 53.2458,29.4853 Z" id="logoMark_CompoundPathItem_-2"></path>
                <polygon id="logoMark_PathItem_" points="19.7482 19.7482 19.7482 12.9998 12.9998 19.7482"></polygon>
                <polygon id="logoMark_PathItem_-2" points="45.7313 45.7313 52.4796 45.7313 45.7313 52.4797"></polygon>
                <polygon id="logoMark_PathItem_-3" points="45.7313 19.7482 52.4796 19.7482 45.7313 12.9998"></polygon>
                <polygon id="logoMark_PathItem_-4" points="19.7482 45.7313 19.7482 52.4797 12.9998 45.7313"></polygon>
                <circle id="logoMark_PathItem_-5" cx="32.7397" cy="32.7398" r="6.1068"></circle>
                <path d="M42.8895,13.2948 C42.8895,11.3234 42.1093,9.4324 40.7198,8.0361 L32.723,-1.42108547e-14 L24.726,8.0361 C23.3366,9.4324 22.5564,11.3234 22.5564,13.2948 L22.5564,22.5563 L42.8898,22.5563 C42.8898,22.5563 42.8898,13.2948 42.8898,13.2948 L42.8895,13.2948 Z M29.4853,12.2003 C29.4853,10.4093 30.9349,8.9573 32.7229,8.9573 C34.5109,8.9573 35.9605,10.4092 35.9605,12.2003 C35.9605,13.9914 34.5109,15.4428 32.7229,15.4428 C30.9349,15.4428 29.4853,13.9913 29.4853,12.2003 Z" id="logoMark_CompoundPathItem_-3"></path>
                <path d="M22.5566,52.1513 C22.5566,54.1227 23.3368,56.0137 24.7263,57.41 L32.7231,65.4461 L40.7201,57.41 C42.1095,56.0137 42.8897,54.1227 42.8897,52.1513 L42.8897,42.8898 L22.5563,42.8898 C22.5563,42.8898 22.5563,52.1513 22.5563,52.1513 L22.5566,52.1513 Z M35.9608,53.2458 C35.9608,55.0368 34.5112,56.4888 32.7232,56.4888 C30.9352,56.4888 29.4856,55.0369 29.4856,53.2458 C29.4856,51.4547 30.9352,50.0033 32.7232,50.0033 C34.5112,50.0033 35.9608,51.4548 35.9608,53.2458 Z" id="logoMark_CompoundPathItem_-4"></path>
            </g>
        </g>
    </g>
</svg>